# File created by Blade
# Date/Time:  Thu Jan 22 19:24:19 2015
# Frame Rate: 120.000 fps
#------------------------------------------------------
:FULLY-SPECIFIED
:DEGREES
3623
root -3.610557 33.368078 -3.103387 -12.096836 -42.459261 22.077680
RightUpLeg -9.575882 1.336667 -8.576727
RightLeg 25.708361 -0.000000 -0.000000
RightFoot -20.685177 -17.450243 -12.413598
RightToeBase 2.373578 -0.000000 -0.000000
LeftUpLeg -109.095323 -29.287620 -2.436450
LeftLeg 115.043748 -0.000000 -0.000000
LeftFoot 12.727203 -8.458789 -17.134376
LeftToeBase 0.393407 -0.000000 -0.000000
Spine 3.327295 32.163281 -5.937745
RightShoulder -5.846830 -5.002699 -22.259251
RightArm 37.903486 -26.472158 56.116097
RightForeArm 14.365529 -0.000000 47.837582
RightHand 11.769472 -0.000000 36.604805
RightHandThumb1 -24.326973 -0.000000 -32.862282
LeftShoulder -29.693906 4.027441 25.330481
LeftArm 15.320247 -29.497453 -37.748536
LeftForeArm 22.796274 -0.000000 0.304594
LeftHand -1.357684 -0.000000 -0.859226
LeftHandThumb1 -26.253704 0.000000 33.147579
Head -18.767506 57.541065 -31.698396
3624
root -3.590224 33.346426 -3.127907 -11.958296 -42.141851 22.031163
RightUpLeg -9.545256 1.455230 -8.651385
RightLeg 25.594001 -0.000000 -0.000000
RightFoot -20.956090 -17.607322 -12.367808
RightToeBase 2.589563 -0.000000 -0.000000
LeftUpLeg -109.117032 -29.241996 -2.458388
LeftLeg 115.073803 -0.000000 -0.000000
LeftFoot 12.617634 -8.460992 -17.172436
LeftToeBase 0.194896 -0.000000 -0.000000
Spine 3.332093 32.137759 -5.966200
RightShoulder -5.868567 -5.008087 -22.227426
RightArm 38.039244 -26.514993 55.987927
RightForeArm 14.369452 0.000000 47.916558
RightHand 11.716308 -0.000000 36.496890
RightHandThumb1 -24.326973 -0.000000 -32.862282
LeftShoulder -29.626650 3.971305 25.352546
LeftArm 15.425020 -29.409780 -37.729220
LeftForeArm 22.769702 -0.000000 0.263196
LeftHand -1.330833 -0.000000 -0.987164
LeftHandThumb1 -26.253704 0.000000 33.147579
Head -18.537158 57.426693 -31.456184
3625
root -3.568600 33.323492 -3.156683 -11.750522 -41.801618 21.946681
RightUpLeg -9.613328 1.729876 -8.718766
RightLeg 25.610117 -0.000000 -0.000000
RightFoot -21.199930 -17.813019 -12.259730
RightToeBase 2.727606 -0.000000 -0.000000
LeftUpLeg -109.182242 -29.208644 -2.440545
LeftLeg 115.100258 -0.000000 -0.000000
LeftFoot 12.544917 -8.415614 -17.162394
LeftToeBase 0.786101 -0.000000 -0.000000
Spine 3.290361 32.098995 -5.985815
RightShoulder -5.926300 -5.009971 -22.249903
RightArm 38.129875 -26.548523 56.002055
RightForeArm 14.276717 -0.000000 47.956636
RightHand 11.719325 -0.000000 36.456572
RightHandThumb1 -24.326973 -0.000000 -32.862282
LeftShoulder -29.573671 3.927927 25.366339
LeftArm 15.578381 -29.332479 -37.729661
LeftForeArm 22.864703 -0.000000 0.234790
LeftHand -1.315396 -0.000000 -1.256457
LeftHandThumb1 -26.253704 0.000000 33.147579
Head -18.275239 57.336597 -31.202308
3626
root -3.551748 33.303468 -3.186591 -11.529575 -41.471845 21.812332
RightUpLeg -9.718298 2.040150 -8.734232
RightLeg 25.721490 -0.000000 -0.000000
RightFoot -21.388408 -17.973463 -12.003920
RightToeBase 2.747204 -0.000000 -0.000000
LeftUpLeg -109.226803 -29.148627 -2.375598
LeftLeg 115.130903 -0.000000 -0.000000
LeftFoot 12.597302 -8.417585 -17.252305
LeftToeBase 0.810467 -0.000000 -0.000000
Spine 3.255505 32.039242 -5.945939
RightShoulder -5.888646 -4.977844 -22.250247
RightArm 37.988955 -26.305260 56.432762
RightForeArm 13.851655 -0.000000 47.883912
RightHand 11.732927 -0.000000 36.935533
RightHandThumb1 -24.326973 -0.000000 -32.862282
LeftShoulder -29.501714 3.810184 25.396422
LeftArm 15.639564 -29.235149 -37.688222
LeftForeArm 22.888713 -0.000000 0.154942
LeftHand -1.558526 -0.000000 -0.899874
LeftHandThumb1 -26.253704 0.000000 33.147579
Head -17.956387 57.257422 -30.935789
3627
root -3.538129 33.287941 -3.215716 -11.321092 -41.112541 21.638993
RightUpLeg -9.819191 2.320910 -8.690919
RightLeg 25.886873 -0.000000 -0.000000
RightFoot -21.449396 -18.262224 -11.742678
RightToeBase 2.670737 -0.000000 -0.000000
LeftUpLeg -109.236945 -29.137976 -2.277892
LeftLeg 115.139057 -0.000000 -0.000000
LeftFoot 12.721687 -8.365121 -17.274077
LeftToeBase 1.157636 -0.000000 -0.000000
Spine 3.283968 31.969344 -5.846129
RightShoulder -5.880831 -4.932683 -22.217087
RightArm 37.810953 -26.157949 56.739847
RightForeArm 13.600912 -0.000000 47.891891
RightHand 11.831082 -0.000000 37.025510
RightHandThumb1 -24.326973 -0.000000 -32.862282
LeftShoulder -29.495819 3.791360 25.408393
LeftArm 15.859845 -29.202466 -37.806666
LeftForeArm 22.948415 -0.000000 0.149435
LeftHand -1.514586 -0.000000 -1.183215
LeftHandThumb1 -26.253704 0.000000 33.147579
Head -17.704638 57.127038 -30.733334
3628
root -3.529401 33.277669 -3.244475 -11.097704 -40.710589 21.432148
RightUpLeg -9.890172 2.568028 -8.611176
RightLeg 26.014320 -0.000000 -0.000000
RightFoot -21.447886 -18.559680 -11.348640
RightToeBase 2.718733 -0.000000 -0.000000
LeftUpLeg -109.214846 -29.155000 -2.153908
LeftLeg 115.141903 -0.000000 -0.000000
LeftFoot 12.902195 -8.399519 -17.303618
LeftToeBase 1.138224 -0.000000 -0.000000
Spine 3.298778 31.869061 -5.744442
RightShoulder -5.915475 -4.937781 -22.129364
RightArm 37.707618 -26.043703 56.938693
RightForeArm 13.514275 0.000000 47.877354
RightHand 11.817544 -0.000000 36.822836
RightHandThumb1 -24.326973 -0.000000 -32.862282
LeftShoulder -29.420843 3.720001 25.509174
LeftArm 15.943050 -29.141350 -37.929851
LeftForeArm 22.975377 -0.000000 0.159549
LeftHand -1.493558 -0.000000 -1.380653
LeftHandThumb1 -26.253704 0.000000 33.147579
Head -17.391605 56.963684 -30.456352
3629
root -3.524414 33.275615 -3.271260 -10.939755 -40.263494 21.242020
RightUpLeg -9.871150 2.605150 -8.545227
RightLeg 26.100038 -0.000000 -0.000000
RightFoot -21.429717 -18.714827 -10.961525
RightToeBase 2.693164 -0.000000 -0.000000
LeftUpLeg -109.097872 -29.208044 -2.080932
LeftLeg 115.112782 -0.000000 -0.000000
LeftFoot 13.111166 -8.470040 -17.139459
LeftToeBase 1.034273 -0.000000 -0.000000
Spine 3.389446 31.687870 -5.628881
RightShoulder -5.913061 -4.930772 -22.000458
RightArm 37.675539 -25.925715 57.088012
RightForeArm 13.514355 -0.000000 47.743378
RightHand 11.774925 -0.000000 36.978325
RightHandThumb1 -24.326973 -0.000000 -32.862282
LeftShoulder -29.386330 3.767310 25.554012
LeftArm 16.086329 -29.181800 -38.109896
LeftForeArm 22.948943 -0.000000 0.171130
LeftHand -1.457656 0.000000 -1.656717
LeftHandThumb1 -26.253704 0.000000 33.147579
Head -17.175120 56.883518 -30.259714
3630
root -3.517203 33.280899 -3.290080 -10.835906 -39.820953 21.069622
RightUpLeg -9.756263 2.476885 -8.514353
RightLeg 26.098181 -0.000000 -0.000000
RightFoot -21.432891 -18.634585 -10.515277
RightToeBase 2.618713 -0.000000 -0.000000
LeftUpLeg -108.913626 -29.294266 -2.036339
LeftLeg 115.074156 -0.000000 -0.000000
LeftFoot 13.294525 -8.499841 -16.945493
LeftToeBase 0.950649 -0.000000 -0.000000
Spine 3.534057 31.504160 -5.459938
RightShoulder -5.910125 -4.913553 -21.906327
RightArm 37.696815 -25.859116 57.163986
RightForeArm 13.386107 -0.000000 47.559584
RightHand 11.821189 -0.000000 36.970072
RightHandThumb1 -24.326973 -0.000000 -32.862282
LeftShoulder -29.305393 3.773533 25.600836
LeftArm 16.128712 -29.252302 -38.275690
LeftForeArm 22.879558 -0.000000 0.169293
LeftHand -1.301503 -0.000000 -2.080365
LeftHandThumb1 -26.253704 0.000000 33.147579
Head -16.951731 56.815288 -30.105037
3631
root -3.507171 33.291741 -3.305724 -10.760670 -39.369200 20.954972
RightUpLeg -9.591150 2.183495 -8.552581
RightLeg 25.965882 -0.000000 -0.000000
RightFoot -21.449584 -18.370503 -9.981898
RightToeBase 2.476478 -0.000000 -0.000000
LeftUpLeg -108.727289 -29.397112 -2.005305
LeftLeg 115.018659 -0.000000 -0.000000
LeftFoot 13.524769 -8.528580 -16.828425
LeftToeBase 0.792492 -0.000000 -0.000000
Spine 3.658688 31.321772 -5.351110
RightShoulder -5.919179 -4.900865 -21.814300
RightArm 37.825599 -25.873153 57.110309
RightForeArm 13.387842 -0.000000 47.316357
RightHand 11.795113 0.000000 36.964724
RightHandThumb1 -24.326973 -0.000000 -32.862282
LeftShoulder -29.205422 3.729228 25.648805
LeftArm 16.153950 -29.267929 -38.369277
LeftForeArm 22.903310 -0.000000 0.065916
LeftHand -1.263455 -0.000000 -2.090215
LeftHandThumb1 -26.253704 0.000000 33.147579
Head -16.781445 56.734966 -29.975057
3632
root -3.497200 33.305748 -3.320911 -10.668331 -38.946712 20.821595
RightUpLeg -9.403075 1.720770 -8.569584
RightLeg 25.744657 -0.000000 -0.000000
RightFoot -21.438361 -18.018601 -9.433919
RightToeBase 2.342736 -0.000000 -0.000000
LeftUpLeg -108.565491 -29.482811 -1.949734
LeftLeg 114.976030 -0.000000 -0.000000
LeftFoot 13.776994 -8.499853 -16.846988
LeftToeBase 1.120689 -0.000000 -0.000000
Spine 3.778033 31.156560 -5.211572
RightShoulder -5.901720 -4.855539 -21.770816
RightArm 37.943888 -25.925997 57.043529
RightForeArm 13.268711 -0.000000 47.076897
RightHand 11.817693 -0.000000 36.984859
RightHandThumb1 -24.326973 -0.000000 -32.862282
LeftShoulder -29.093509 3.599004 25.686495
LeftArm 16.145827 -29.229925 -38.376140
LeftForeArm 22.757558 0.000000 -0.109935
LeftHand -1.156056 -0.000000 -2.319520
LeftHandThumb1 -26.253704 0.000000 33.147579
Head -16.659734 56.660530 -29.892865
3633
root -3.484189 33.324871 -3.336084 -10.617500 -38.541396 20.753507
RightUpLeg -9.211398 1.075321 -8.657771
RightLeg 25.497332 -0.000000 -0.000000
RightFoot -21.440321 -17.476269 -9.102835
RightToeBase 2.220229 -0.000000 -0.000000
LeftUpLeg -108.414148 -29.549330 -1.924002
LeftLeg 114.907733 -0.000000 -0.000000
LeftFoot 14.185051 -8.482814 -16.931389
LeftToeBase 1.127938 -0.000000 -0.000000
Spine 3.901124 31.022713 -5.116440
RightShoulder -5.834046 -4.763078 -21.756055
RightArm 37.985937 -25.983569 56.981909
RightForeArm 13.119891 -0.000000 46.882675
RightHand 11.841104 0.000000 37.106162
RightHandThumb1 -24.326973 -0.000000 -32.862282
LeftShoulder -29.007739 3.492975 25.703257
LeftArm 16.179428 -29.208037 -38.433512
LeftForeArm 22.681989 -0.000000 -0.156905
LeftHand -0.980407 -0.000000 -2.886233
LeftHandThumb1 -26.253704 0.000000 33.147579
Head -16.579415 56.559087 -29.861938
3634
root -3.467993 33.348336 -3.348281 -10.558671 -38.206223 20.714653
RightUpLeg -9.039157 0.411904 -8.767447
RightLeg 25.187009 -0.000000 -0.000000
RightFoot -21.419027 -16.834996 -8.808033
RightToeBase 2.058856 -0.000000 -0.000000
LeftUpLeg -108.305466 -29.577929 -1.892804
LeftLeg 114.858458 -0.000000 -0.000000
LeftFoot 14.565248 -8.399577 -17.040457
LeftToeBase 0.941217 -0.000000 -0.000000
Spine 3.958227 30.948005 -5.051057
RightShoulder -5.749139 -4.693277 -21.763757
RightArm 38.029020 -26.056858 56.909623
RightForeArm 13.053162 -0.000000 46.712515
RightHand 11.872787 0.000000 37.052193
RightHandThumb1 -24.326973 -0.000000 -32.862282
LeftShoulder -28.943869 3.408494 25.700855
LeftArm 16.206550 -29.165923 -38.476516
LeftForeArm 22.824707 -0.000000 -0.125863
LeftHand -1.059468 0.000000 -3.110467
LeftHandThumb1 -26.253704 0.000000 33.147579
Head -16.503207 56.449374 -29.804616
